<svg width="15" height="14" viewBox="0 0 15 14" fill="none" xmlns="http://www.w3.org/2000/svg">
<path d="M4.85718 1.5238L5.37603 0.668938L4.85718 0.35403L4.33833 0.668938L4.85718 1.5238ZM7.85718 3.34461L7.33833 4.19948L7.85718 4.51439L8.37603 4.19948L7.85718 3.34461ZM1.85718 3.34461L1.33833 2.48975L0.857178 2.78177V3.34461H1.85718ZM1.85718 7.24635H0.857178V7.70787L1.20838 8.00731L1.85718 7.24635ZM7.85718 12.362L7.20838 13.1229L7.85718 13.6761L8.50597 13.1229L7.85718 12.362ZM13.8572 7.24635L14.506 8.00731L14.8572 7.70787V7.24635H13.8572ZM13.8572 3.34461H14.8572V2.78177L14.376 2.48975L13.8572 3.34461ZM10.8572 1.5238L11.376 0.668938L10.8572 0.35403L10.3383 0.668938L10.8572 1.5238ZM4.33833 2.37867L7.33833 4.19948L8.37603 2.48975L5.37603 0.668938L4.33833 2.37867ZM2.37603 4.19948L5.37603 2.37867L4.33833 0.668938L1.33833 2.48975L2.37603 4.19948ZM2.85718 7.24635V3.34461H0.857178V7.24635H2.85718ZM8.50597 11.601L2.50597 6.48538L1.20838 8.00731L7.20838 13.1229L8.50597 11.601ZM8.50597 13.1229L14.506 8.00731L13.2084 6.48538L7.20838 11.601L8.50597 13.1229ZM14.8572 7.24635V3.34461H12.8572V7.24635H14.8572ZM14.376 2.48975L11.376 0.668938L10.3383 2.37867L13.3383 4.19948L14.376 2.48975ZM10.3383 0.668938L7.33833 2.48975L8.37603 4.19948L11.376 2.37867L10.3383 0.668938Z" fill="white"/>
</svg>
